<?xml version="1.0" encoding="utf-8"?>
<!-- Generator: Adobe Illustrator 26.0.1, SVG Export Plug-In . SVG Version: 6.00 Build 0)  -->
<svg version="1.1" id="Layer_1" xmlns="http://www.w3.org/2000/svg" xmlns:xlink="http://www.w3.org/1999/xlink" x="0px" y="0px"
	 viewBox="0 0 68 68" style="enable-background:new 0 0 68 68;" xml:space="preserve">
<style type="text/css">
	.st0{fill:#FFFFFF;}
	.st1{clip-path:url(#XMLID_00000171699653279101503070000008003794226758343552_);fill:#FFFFFF;}
	.st2{clip-path:url(#XMLID_00000117644039452106550690000004683693194223329449_);fill:#FFFFFF;}
	.st3{clip-path:url(#XMLID_00000072250162548747536330000008717170917746353337_);fill:#FFFFFF;}
	.st4{clip-path:url(#XMLID_00000086675221736397121310000012858986251551796640_);fill:#FFFFFF;}
	.st5{clip-path:url(#XMLID_00000101097224825624335480000004400832735548891522_);fill:#FFFFFF;}
</style>
<g id="XMLID_181_">
	<path id="XMLID_206_" class="st0" d="M39.9,55.6c-1.2-1.2-2.9-1.8-4.4-2.3c-2.2-0.7-4.4-1.4-6.7-1.8c-0.5-0.1-1.1-0.2-1.6-0.3
		c-0.7-2.1-1-4.3-0.2-6.4c0,0-4.5-1.6-4.6-1.3c-1,2.5-0.4,5.4,0.7,7.8c-1.4,0.3-2.7,1.1-3.3,2.4c-0.7,1.3-0.6,3-0.1,4.3
		c0.3,0.8,0.7,1.5,1.2,2.2c-1.9,0.5-3.2,1.6-2.2,3.7c0,0.1,0.6,0.3,0.7,0.3c0.5,0.2,1.1,0.3,1.6,0.5c0.5,0.2,1.1,0.3,1.6,0.4
		c0.1,0,0.7,0.1,0.7,0.1c-0.4-1-0.3-1.8,0.1-2.4c1.1,0.9,2.3,1.5,3.6,2c2,0.7,4.2,1.4,6.4,1.5c1.1,0.1,3.2,0.1,3.6-1.2
		c0.5-1.6-1.9-2.7-3.1-3.1c-2.4-0.9-4.9-1.6-7.4-1.9c-0.5-0.1-1.2-0.1-1.9-0.2c-0.1-0.2-0.2-0.4-0.2-0.6c-0.6-1.7-0.5-3.7,0.6-5
		c1.4,1.9,3.2,3.3,5.4,4.1c0.6,0.2,1.3,0.4,2,0.6c0.1,0,0.1,0,0.2,0c0.1,0,0.2,0.1,0.3,0.1c0,0,0,0,0.1,0c1.2,0.3,2.4,0.6,3.6,0.7
		c1.3,0.2,2.7,0.7,3.8-0.4C41.3,58.3,40.9,56.6,39.9,55.6 M27.1,61.2c1.2-0.1,2.4,0,3.6,0.2c0.1,0,0.2,0.1,0.3,0.1
		c0.6,0.4,1.2,0.9,1.4,1.6c0.3,1.1-0.6,1.7-1.5,1.9c-0.6,0.1-1.1,0.2-1.7,0.1c-1.4-0.8-2.7-2.1-3.7-3.5C26,61.4,26.5,61.3,27.1,61.2
		 M35.7,58c-0.7,0.9-1.7,1-2.7,0.8c-0.1,0-0.3,0-0.4-0.1c0,0,0,0-0.1,0c-2.1-1.3-3.7-3.4-4.8-5.6c-0.1-0.2-0.1-0.3-0.2-0.5
		c0.5-0.1,1-0.2,1.5-0.2c0.8-0.1,1.5,0,2.3,0.1c0.3,0,0.6,0.1,0.9,0.1c0.2,0,0.4,0.1,0.6,0.1c-0.2,0-0.3-0.1-0.5-0.1
		c0.5-0.1,1.6,0.7,2,1c0.5,0.3,1,0.8,1.3,1.3C36.4,55.8,36.5,57,35.7,58"/>
	<g id="XMLID_201_">
		<defs>
			<path id="XMLID_202_" d="M21.7,35c0-6,5.4-10.8,12.1-10.8c6.7,0,12.1,4.9,12.1,10.8c0,6-5.4,10.8-12.1,10.8
				C27.1,45.9,21.7,41,21.7,35 M45.4,23.5c-3.1-2.5-7.1-4-11.6-4c-9.6,0-17.3,6.9-17.3,15.5c0,8.6,7.7,15.5,17.3,15.5
				c9.6,0,17.3-6.9,17.3-15.5c0-3.6-1.4-6.9-3.7-9.6c0.7-1.5,2.1-3.9,2.4-1.3c0.4,3.7,4.5,3.6,5.9,2c1.4-1.5,0.8-5.7-3.1-6.7
				c-0.4-0.1-0.7-0.1-1.1-0.1C48.9,19.4,46.4,22,45.4,23.5"/>
		</defs>
		<use xlink:href="#XMLID_202_"  style="overflow:visible;fill:#FFFFFF;"/>
		<clipPath id="XMLID_00000126319157498916454450000010622054447139710352_">
			<use xlink:href="#XMLID_202_"  style="overflow:visible;"/>
		</clipPath>
		
			<rect id="XMLID_205_" x="11.5" y="9.5" transform="matrix(0.6913 -0.7226 0.7226 0.6913 -13.899 37.3871)" style="clip-path:url(#XMLID_00000126319157498916454450000010622054447139710352_);fill:#FFFFFF;" width="50.6" height="50.9"/>
	</g>
	<g id="XMLID_198_">
		<defs>
			<path id="XMLID_199_" d="M34.7,3.4c-1.5,3-0.2,9.6,0.2,12.6c0,0.3,0.4,0.3,0.4,0c1.1-11.2,4.5-10.3,4.1-12
				c-0.2-1-1.3-2.4-2.6-2.4C36.1,1.6,35.4,2.1,34.7,3.4"/>
		</defs>
		<use xlink:href="#XMLID_199_"  style="overflow:visible;fill:#FFFFFF;"/>
		<clipPath id="XMLID_00000066517326204774486480000009723165150515239593_">
			<use xlink:href="#XMLID_199_"  style="overflow:visible;"/>
		</clipPath>
		
			<rect id="XMLID_200_" x="28.9" y="1.5" transform="matrix(0.6913 -0.7226 0.7226 0.6913 4.803 29.1513)" style="clip-path:url(#XMLID_00000066517326204774486480000009723165150515239593_);fill:#FFFFFF;" width="15.2" height="14.9"/>
	</g>
	<g id="XMLID_195_">
		<defs>
			<path id="XMLID_196_" d="M29.3,16.2c0.1,0.1,0.4,0,0.3-0.2c-0.4-1.7-1.7-6.7-4.6-6.9c-0.1,0-0.1,0-0.2,0
				C22.2,9.1,27.6,14.6,29.3,16.2"/>
		</defs>
		<use xlink:href="#XMLID_196_"  style="overflow:visible;fill:#FFFFFF;"/>
		<clipPath id="XMLID_00000036946639476606022380000003046858543852803478_">
			<use xlink:href="#XMLID_196_"  style="overflow:visible;"/>
		</clipPath>
		
			<rect id="XMLID_197_" x="20.7" y="7.5" transform="matrix(0.6913 -0.7226 0.7226 0.6913 -1.2022 22.638)" style="clip-path:url(#XMLID_00000036946639476606022380000003046858543852803478_);fill:#FFFFFF;" width="10.4" height="10.4"/>
	</g>
	<g id="XMLID_192_">
		<defs>
			<path id="XMLID_193_" d="M40.1,17.3c-0.1,0.2,0,0.3,0.2,0.3c1.9-0.8,8.5-3.9,6.2-4.8c-0.2-0.1-0.4-0.1-0.7-0.1
				C43.7,12.7,41.1,16.1,40.1,17.3"/>
		</defs>
		<use xlink:href="#XMLID_193_"  style="overflow:visible;fill:#FFFFFF;"/>
		<clipPath id="XMLID_00000083075897532071957940000000924257833277574785_">
			<use xlink:href="#XMLID_193_"  style="overflow:visible;"/>
		</clipPath>
		
			<rect id="XMLID_194_" x="39.6" y="10.3" transform="matrix(0.6913 -0.7226 0.7226 0.6913 2.7276 36.7623)" style="clip-path:url(#XMLID_00000083075897532071957940000000924257833277574785_);fill:#FFFFFF;" width="9.7" height="9.8"/>
	</g>
	<g id="XMLID_189_">
		<defs>
			<path id="XMLID_190_" d="M16.1,13.9c-4.1,0.1-4.7,3-4.4,4.4c0.2,0.8,0.9,0.4,2.4,0c1.8-0.5,4.8-0.9,8.9,0.7
				c0.3,0.1,0.6-0.2,0.4-0.5c-1.4-1.7-4.2-4.7-7.2-4.7C16.2,13.9,16.1,13.9,16.1,13.9"/>
		</defs>
		<use xlink:href="#XMLID_190_"  style="overflow:visible;fill:#FFFFFF;"/>
		<clipPath id="XMLID_00000042712230413052164330000003407140549862233740_">
			<use xlink:href="#XMLID_190_"  style="overflow:visible;"/>
		</clipPath>
		
			<rect id="XMLID_191_" x="11.3" y="10.3" transform="matrix(0.6913 -0.7226 0.7226 0.6913 -6.5801 17.7381)" style="clip-path:url(#XMLID_00000042712230413052164330000003407140549862233740_);fill:#FFFFFF;" width="12.3" height="12.5"/>
	</g>
</g>
</svg>
