<?xml version="1.0" encoding="utf-8"?>
<!-- Generator: Adobe Illustrator 26.0.1, SVG Export Plug-In . SVG Version: 6.00 Build 0)  -->
<svg version="1.1" id="Layer_1" xmlns="http://www.w3.org/2000/svg" xmlns:xlink="http://www.w3.org/1999/xlink" x="0px" y="0px"
	 viewBox="0 0 232 68" style="enable-background:new 0 0 232 68;" xml:space="preserve">
<style type="text/css">
	.st0{fill:#3AA9E0;}
	.st1{clip-path:url(#XMLID_00000050657444136152605730000012978187615613093249_);fill:#3AA9E0;}
	.st2{clip-path:url(#XMLID_00000077325039668922940680000017305383545945783741_);fill:#3AA9E0;}
	.st3{clip-path:url(#XMLID_00000133498375276980170250000003517567769077606804_);fill:#3AA9E0;}
	.st4{clip-path:url(#XMLID_00000000927094329213880910000012448191038982697120_);fill:#3AA9E0;}
	.st5{clip-path:url(#XMLID_00000142879082448204701670000008959424471866868657_);fill:#3AA9E0;}
</style>
<g id="XMLID_181_">
	<path id="XMLID_206_" class="st0" d="M82.5,55.6c-1.2-1.2-2.9-1.8-4.4-2.3c-2.2-0.7-4.4-1.4-6.7-1.8c-0.5-0.1-1.1-0.2-1.6-0.3
		c-0.7-2.1-1-4.3-0.2-6.4c0,0-4.5-1.6-4.6-1.3c-1,2.5-0.4,5.4,0.7,7.8c-1.4,0.3-2.7,1.1-3.3,2.4c-0.7,1.3-0.6,3-0.1,4.3
		c0.3,0.8,0.7,1.5,1.2,2.2c-1.9,0.5-3.2,1.6-2.2,3.7c0,0.1,0.6,0.3,0.7,0.3c0.5,0.2,1.1,0.3,1.6,0.5c0.5,0.2,1.1,0.3,1.6,0.4
		c0.1,0,0.7,0.1,0.7,0.1c-0.4-1-0.3-1.8,0.1-2.4c1.1,0.9,2.3,1.5,3.6,2c2,0.7,4.2,1.4,6.4,1.5c1.1,0.1,3.2,0.1,3.6-1.2
		c0.5-1.6-1.9-2.7-3.1-3.1c-2.4-0.9-4.9-1.6-7.4-1.9c-0.5-0.1-1.2-0.1-1.9-0.2c-0.1-0.2-0.2-0.4-0.2-0.6c-0.6-1.7-0.5-3.7,0.6-5
		c1.4,1.9,3.2,3.3,5.4,4.1c0.6,0.2,1.3,0.4,2,0.6c0.1,0,0.1,0,0.2,0c0.1,0,0.2,0.1,0.3,0.1c0,0,0,0,0.1,0c1.2,0.3,2.4,0.6,3.6,0.7
		c1.3,0.2,2.7,0.7,3.8-0.4C83.9,58.3,83.5,56.6,82.5,55.6 M69.7,61.2c1.2-0.1,2.4,0,3.6,0.2c0.1,0,0.2,0.1,0.3,0.1
		c0.6,0.4,1.2,0.9,1.4,1.6c0.3,1.1-0.6,1.7-1.5,1.9c-0.6,0.1-1.1,0.2-1.7,0.1C70.3,64.3,69,63,68,61.6
		C68.6,61.4,69.1,61.3,69.7,61.2 M78.3,58c-0.7,0.9-1.7,1-2.7,0.8c-0.1,0-0.3,0-0.4-0.1c0,0,0,0-0.1,0c-2.1-1.3-3.7-3.4-4.8-5.6
		c-0.1-0.2-0.1-0.3-0.2-0.5c0.5-0.1,1-0.2,1.5-0.2c0.8-0.1,1.5,0,2.3,0.1c0.3,0,0.6,0.1,0.9,0.1c0.2,0,0.4,0.1,0.6,0.1
		c-0.2,0-0.3-0.1-0.5-0.1c0.5-0.1,1.6,0.7,2,1c0.5,0.3,1,0.8,1.3,1.3C79,55.8,79.1,57,78.3,58"/>
	<g id="XMLID_201_">
		<defs>
			<path id="XMLID_202_" d="M64.3,35c0-6,5.4-10.8,12.1-10.8c6.7,0,12.1,4.9,12.1,10.8c0,6-5.4,10.8-12.1,10.8
				C69.7,45.9,64.3,41,64.3,35 M88,23.5c-3.1-2.5-7.1-4-11.6-4c-9.6,0-17.3,6.9-17.3,15.5c0,8.6,7.7,15.5,17.3,15.5
				c9.6,0,17.3-6.9,17.3-15.5c0-3.6-1.4-6.9-3.7-9.6c0.7-1.5,2.1-3.9,2.4-1.3c0.4,3.7,4.5,3.6,5.9,2c1.4-1.5,0.8-5.7-3.1-6.7
				c-0.4-0.1-0.7-0.1-1.1-0.1C91.5,19.4,89,22,88,23.5"/>
		</defs>
		<use xlink:href="#XMLID_202_"  style="overflow:visible;fill:#3AA9E0;"/>
		<clipPath id="XMLID_00000094614893542232245830000016000420786616302995_">
			<use xlink:href="#XMLID_202_"  style="overflow:visible;"/>
		</clipPath>
		
			<rect id="XMLID_205_" x="54.1" y="9.5" transform="matrix(0.6913 -0.7226 0.7226 0.6913 -0.7472 68.1693)" style="clip-path:url(#XMLID_00000094614893542232245830000016000420786616302995_);fill:#3AA9E0;" width="50.6" height="50.9"/>
	</g>
	<g id="XMLID_198_">
		<defs>
			<path id="XMLID_199_" d="M77.3,3.4c-1.5,3-0.2,9.6,0.2,12.6c0,0.3,0.4,0.3,0.4,0C79,4.9,82.4,5.7,82,4c-0.2-1-1.3-2.4-2.6-2.4
				C78.7,1.6,78,2.1,77.3,3.4"/>
		</defs>
		<use xlink:href="#XMLID_199_"  style="overflow:visible;fill:#3AA9E0;"/>
		<clipPath id="XMLID_00000119079439105882638860000003710456132676344241_">
			<use xlink:href="#XMLID_199_"  style="overflow:visible;"/>
		</clipPath>
		
			<rect id="XMLID_200_" x="71.5" y="1.5" transform="matrix(0.6913 -0.7226 0.7226 0.6913 17.9544 59.9331)" style="clip-path:url(#XMLID_00000119079439105882638860000003710456132676344241_);fill:#3AA9E0;" width="15.2" height="14.9"/>
	</g>
	<g id="XMLID_195_">
		<defs>
			<path id="XMLID_196_" d="M71.9,16.2c0.1,0.1,0.4,0,0.3-0.2c-0.4-1.7-1.7-6.7-4.6-6.9c-0.1,0-0.1,0-0.2,0
				C64.8,9.1,70.2,14.6,71.9,16.2"/>
		</defs>
		<use xlink:href="#XMLID_196_"  style="overflow:visible;fill:#3AA9E0;"/>
		<clipPath id="XMLID_00000124855264754039801010000013290341156543106447_">
			<use xlink:href="#XMLID_196_"  style="overflow:visible;"/>
		</clipPath>
		
			<rect id="XMLID_197_" x="63.3" y="7.5" transform="matrix(0.6913 -0.7226 0.7226 0.6913 11.949 53.4196)" style="clip-path:url(#XMLID_00000124855264754039801010000013290341156543106447_);fill:#3AA9E0;" width="10.4" height="10.4"/>
	</g>
	<g id="XMLID_192_">
		<defs>
			<path id="XMLID_193_" d="M82.7,17.3c-0.1,0.2,0,0.3,0.2,0.3c1.9-0.8,8.5-3.9,6.2-4.8c-0.2-0.1-0.4-0.1-0.7-0.1
				C86.3,12.7,83.7,16.1,82.7,17.3"/>
		</defs>
		<use xlink:href="#XMLID_193_"  style="overflow:visible;fill:#3AA9E0;"/>
		<clipPath id="XMLID_00000011014447306784075370000006523647712621648269_">
			<use xlink:href="#XMLID_193_"  style="overflow:visible;"/>
		</clipPath>
		
			<rect id="XMLID_194_" x="82.2" y="10.3" transform="matrix(0.6913 -0.7226 0.7226 0.6913 15.8792 67.5443)" style="clip-path:url(#XMLID_00000011014447306784075370000006523647712621648269_);fill:#3AA9E0;" width="9.7" height="9.8"/>
	</g>
	<g id="XMLID_189_">
		<defs>
			<path id="XMLID_190_" d="M58.7,13.9c-4.1,0.1-4.7,3-4.4,4.4c0.2,0.8,0.9,0.4,2.4,0c1.8-0.5,4.8-0.9,8.9,0.7
				c0.3,0.1,0.6-0.2,0.4-0.5c-1.4-1.7-4.2-4.7-7.2-4.7C58.8,13.9,58.7,13.9,58.7,13.9"/>
		</defs>
		<use xlink:href="#XMLID_190_"  style="overflow:visible;fill:#3AA9E0;"/>
		<clipPath id="XMLID_00000026846388560053361370000002345036455209345421_">
			<use xlink:href="#XMLID_190_"  style="overflow:visible;"/>
		</clipPath>
		
			<rect id="XMLID_191_" x="53.9" y="10.3" transform="matrix(0.6913 -0.7226 0.7226 0.6913 6.5719 48.5205)" style="clip-path:url(#XMLID_00000026846388560053361370000002345036455209345421_);fill:#3AA9E0;" width="12.3" height="12.5"/>
	</g>
	<path id="XMLID_188_" class="st0" d="M96.9,59.3c-1.6,0-2.9-0.5-4-1.7c-1.1-1.1-1.7-2.4-1.7-4c0-2.4,0.8-4.6,2.3-6.4
		c1.5-1.8,3.4-2.7,5.8-2.7c1.2,0,2.1,0.4,2.8,1.1c0.7,0.8,1.1,1.7,1,2.8l0,0.5c-1.3,0.6-2.8,1.3-4.5,1.9c-1.6,0.5-3.2,1.1-4.9,1.6
		l-0.1,0L92.5,54l0.7,0c1.4,0,3.7-0.6,6.9-2.1c5-2.2,6.4-2.8,6.7-2.9h0.1l0.1-0.2c0.2-0.3,0.3-0.7,0.3-1.1c0-1.5-0.7-2.8-1.9-3.8
		c-1.3-1-2.7-1.5-4.2-1.5c-3.5,0-6.7,1.2-9.4,3.7c-2.8,2.5-4.3,5.6-4.3,9.1c0,1.8,0.7,3.3,2.1,4.5c1.4,1.2,2.9,1.8,4.7,1.8
		c1.8,0,3.4-0.3,4.8-0.9c1.2-0.6,2.5-1.5,4-2.9l0.1-0.1v-1.5l-0.6,0.4C100.2,58.4,98.2,59.3,96.9,59.3"/>
	<path id="XMLID_187_" class="st0" d="M125.6,57.2c-2.4,1.6-2.9,1.8-3,1.8c-0.1,0-0.2,0-0.2,0c0.2-0.4,1-2.1,3.7-7.6
		c2.7-5.5,3.1-6.7,3.1-7.1c0-1.6-0.9-1.8-1.5-1.8c-1.9,0-5.6,1.8-11.2,5.5l-0.3,0.1v-0.2c1.1-1.7,1.7-2.9,1.7-3.7
		c0-1.4-0.9-1.6-1.3-1.6c-1.8,0-4.1,1.3-7,3.9l-1.5,1.4l1.9-0.8c1.4-0.6,2.5-1.1,3.3-1.5l0.2,0.3l-7.4,14.6l0.3,1.2h2.8l0.1-0.1
		c0.8-1.1,1.7-2.6,2.5-4.4c0.7-1.6,1.4-3.1,2-4.5c0.8-1.6,2.4-3.1,4.6-4.4c2-1,4-1.9,6-2.9c0.2,0,0.4,0.1,0.5,0.5
		c-7,14.6-7,14.9-7,15.1c0,0.5,0.2,1.2,1.8,1.2c0.7,0,1.7-0.4,3.1-1.3l3-1.8l0.8-1.1l-0.9-0.9L125.6,57.2z"/>
	<path id="XMLID_186_" class="st0" d="M133.9,58c-1.2,0.6-1.4,0.6-1.4,0.6c0,0-0.1,0-0.1,0l6.9-14.7l-0.4-1l-0.1-0.1
		c-0.5-0.3-0.8-0.5-1.1-0.5c-0.8,0-1.9,0.5-3.4,1.5c-1.4,1-2.4,1.8-2.9,2.5l-0.3,0.4l0.4,0.2c0.3,0.1,0.5,0.2,0.7,0.2h0.2l0.1-0.1
		c1.5-0.9,1.9-1.1,2-1.2c0,0,0,0,0.1,0v0.4c-2.9,5.7-5.1,10.1-6.6,13.1l0,0.1l-0.1,1.4l0.1,0.1c0.6,0.6,1.2,0.9,1.6,0.9
		c0.7,0,1.9-0.5,3.6-1.5c2.3-1.4,2.7-2.1,2.8-2.5l0.1-0.5l-0.5,0.1C135.5,57.2,135.1,57.3,133.9,58"/>
	<path id="XMLID_185_" class="st0" d="M140.6,36.9c1.5,0,2.3-0.8,2.3-2.3c0-0.6-0.2-1.2-0.6-1.7c-0.4-0.5-1-0.8-1.6-0.8
		c-0.7,0-1.2,0.3-1.6,0.8c-0.4,0.5-0.6,1.1-0.6,1.7c0,0.6,0.2,1.1,0.7,1.6C139.4,36.6,140,36.9,140.6,36.9"/>
	<path id="XMLID_184_" class="st0" d="M156.2,57.4c-2.2,1.3-2.7,1.6-2.9,1.6c-0.1,0-0.2,0-0.3-0.1l7.7-15.1l-0.6-0.9h-0.2
		c-0.2,0-0.5,0-0.9-0.1c-0.4-0.1-0.7-0.1-1-0.1c-0.4,0-0.9,0.3-2,2.7c-1.1,2.3-1.4,3-1.5,3.1c-4.2,3.3-8.3,6.3-12.1,9h-0.2l-0.1-0.2
		l6.4-12.9l0.1-0.1l0-0.1c-0.3-1.2-0.8-1.8-1.6-1.8c-0.5,0-1.6,0.4-6,3.2l-0.1,0l-1,1.5l0.7-0.1c0.6,0,1.2-0.3,1.9-0.8
		c0.8-0.5,1.1-0.6,1.2-0.6c0,0,0.1,0,0.2,0.3l-7.1,14.2l0,0.1l0,0.1c0.1,0.9,0.7,1.4,1.6,1.4l0.9-0.1l0.1-0.1c8-5.9,12.3-9.1,13-9.6
		c0.1,0,0.1,0,0.2,0c-0.2,0.5-0.7,1.6-2,4c-1.6,2.9-1.8,3.7-1.8,4.1c0,1.1,0.7,1.7,1.8,1.7c0.3,0,1-0.1,3.2-1.4
		c1.6-0.9,2.7-1.6,3.2-2l0.3-0.2l-0.9-1L156.2,57.4z"/>
	<path id="XMLID_183_" class="st0" d="M177.8,47.9c-0.4-1.6-1.3-3-2.7-4.1c-1.4-1.1-3-1.6-4.6-1.6c-2.4,0-4.3,0.6-5.7,1.9
		c-1.4,1.3-2.1,3.1-2.1,5.5c0,1.4,0.8,2.5,2.3,3.4c1.3,0.7,2.7,1,4.1,1c0.7,0,1.4-0.3,2.1-1l0.6-0.6l-0.9,0c-1.9,0.1-3.3-0.3-4.1-1
		c-0.5-0.5-0.8-1.2-0.8-2.1c0-1.4,0.6-2.4,1.8-3.3c1.1-0.8,2.4-1.1,3.8-1.1c1.6,0,2.7,0.4,3.4,1.1c0.6,1.1,1.3,2.1,2,3.2l0.5,0.7
		L177.8,47.9L177.8,47.9z"/>
	<path id="XMLID_182_" class="st0" d="M171.4,48.8c-2.3,0-3.8,0.4-4.6,1.3l-0.2,0.2l0.6,0.9l0.2-0.1c0.9-0.2,1.6-0.3,2.1-0.3
		c0.9,0,1.6,0.3,2.1,1c0.6,0.7,0.9,1.4,0.9,2.3c0,1.5-0.6,2.9-1.6,4.1c-1.1,1.2-2.3,1.9-3.8,1.9h-2.2c-0.8,0-1.5-0.3-2.2-0.8
		c-0.6-0.5-1-1.1-1-1.8c0-0.2,0.2-0.4,0.5-0.6c0.4-0.2,0.7-0.4,0.9-0.4c0.7,0,1.2,0.1,1.5,0.4c0.8,0.6,1.3,0.9,1.4,1l0.3,0.2
		l0.5-0.9l-0.1-0.1c-0.2-0.6-0.9-1.2-2.1-2c-1.2-0.8-2.1-1.1-2.7-1.1c-0.9,0-1.7,0.2-2.4,0.7c-0.9,0.5-1.3,1.2-1.3,2.2
		c0,1.6,1,3,3.1,3.9c1.6,0.7,3.3,1.1,5.1,1.1c2.4,0,4.6-0.6,6.5-1.9c2.3-1.5,3.5-3.3,3.5-5.6c0-1.3-0.6-2.5-1.7-3.7
		C173.8,49.4,172.6,48.8,171.4,48.8"/>
</g>
</svg>
